# Blender v2.80 (sub 75) OBJ File: ''
# www.blender.org
mtllib arrow_centered.mtl
o arrow
v 7.493470 -4.269979 -18.564552
v 7.493472 -4.269975 4.411650
v -7.533878 -4.269975 4.394151
v -7.546580 -4.269979 -18.564550
v 12.617421 -4.269975 4.430999
v 0.118423 -4.269972 19.461300
v -12.642329 -4.269975 4.431002
v 7.493470 4.269972 -18.564554
v -7.546580 4.269972 -18.564552
v -7.533878 4.269976 4.394150
v 7.493472 4.269976 4.411648
v 0.118423 4.269978 19.461300
v 12.617421 4.269976 4.430998
v -12.642329 4.269976 4.431000
vt 1.000000 0.000000
vt 1.000000 0.500000
vt 0.500000 0.500000
vt 0.500000 0.000000
vt 1.000000 1.000000
vt 0.500000 1.000000
vt 0.000000 1.000000
vt 0.000000 0.000000
vt 0.500000 0.000000
vt 0.500000 0.500000
vt 0.000000 0.500000
vt 0.500000 1.000000
vt 0.000000 1.000000
vt 1.000000 1.000000
vt 0.000000 0.000000
vt 0.500000 1.000000
vt 0.000000 1.000000
vt 0.000000 0.000000
vt 0.500000 0.000000
vt 0.500000 1.000000
vt 0.000000 1.000000
vt 1.000000 0.000000
vt 0.000000 0.000000
vt 0.500000 0.000000
vt 0.000000 1.000000
vt 1.000000 0.000000
vt 1.000000 1.000000
vt 0.000000 0.000000
vt 0.500000 0.000000
vt 0.500000 1.000000
vt 1.000000 1.000000
vn -0.0000 -1.0000 0.0000
vn 0.0000 1.0000 -0.0000
vn 0.0000 -0.0000 -1.0000
vn -1.0000 0.0000 0.0006
vn -0.7098 -0.0000 -0.7044
vn -0.0072 -0.0000 -1.0000
vn -0.7623 0.0000 0.6472
vn 0.0051 0.0000 1.0000
vn 0.7689 0.0000 0.6394
vn 0.0038 -0.0000 -1.0000
vn 0.7084 -0.0000 -0.7058
vn 1.0000 0.0000 -0.0000
usemtl Material__20
s 1
f 1/1/1 2/2/1 3/3/1 4/4/1
f 2/2/1 5/5/1 6/6/1 3/3/1
f 3/3/1 6/6/1 7/7/1
f 8/8/2 9/9/2 10/10/2 11/11/2
f 11/11/2 10/10/2 12/12/2 13/13/2
f 14/14/2 12/12/2 10/10/2
f 1/15/3 4/4/3 9/16/3 8/17/3
f 4/18/4 3/19/5 10/20/5 9/21/4
f 3/19/5 7/22/6 14/14/6 10/20/5
f 7/23/7 6/24/8 12/12/8 14/25/7
f 6/24/8 5/26/9 13/27/9 12/12/8
f 5/28/10 2/29/11 11/30/11 13/13/10
f 2/29/11 1/1/12 8/31/12 11/30/11
